<?xml version="1.0" encoding="utf-8"?>
<!-- Generator: Adobe Illustrator 21.0.0, SVG Export Plug-In . SVG Version: 6.00 Build 0)  -->
<svg version="1.1" id="图层_2" xmlns="http://www.w3.org/2000/svg" xmlns:xlink="http://www.w3.org/1999/xlink" x="0px" y="0px"
	 viewBox="0 0 4377.6 4015.6" style="enable-background:new 0 0 4377.6 4015.6;" xml:space="preserve">
<style type="text/css">
	.st0{fill:none;stroke:#000000;stroke-miterlimit:10;}
</style>
<title>road</title>
<line id="fly" class="st0" x1="1940.2" y1="1730" x2="2175.2" y2="1730"/>
<line id="fly_1_" class="st0" x1="2175.2" y1="1755.1" x2="1940.2" y2="1755.1"/>
<line id="fly_2_" class="st0" x1="1940.2" y1="1780.2" x2="2175.2" y2="1780.2"/>
<line id="fly_3_" class="st0" x1="2175.2" y1="1805.4" x2="1940.2" y2="1805.4"/>
<line id="fly_4_" class="st0" x1="1940.2" y1="1830.5" x2="2175.2" y2="1830.5"/>
<line id="fly_5_" class="st0" x1="2175.2" y1="1855.7" x2="1940.2" y2="1855.7"/>
<line id="fly_6_" class="st0" x1="1940.2" y1="1880.8" x2="2175.2" y2="1880.8"/>
<line id="fly_7_" class="st0" x1="2175.2" y1="1905.9" x2="1940.2" y2="1905.9"/>
<line id="fly_8_" class="st0" x1="1940.2" y1="1931.1" x2="2175.2" y2="1931.1"/>
<line id="fly_9_" class="st0" x1="2175.2" y1="1956.2" x2="1940.2" y2="1956.2"/>
<line id="fly_10_" class="st0" x1="2175.2" y1="1981.3" x2="1940.2" y2="1981.3"/>
<line id="fly_21_" class="st0" x1="2316.4" y1="1981.3" x2="2316.4" y2="1730"/>
<line id="fly_20_" class="st0" x1="2442.1" y1="1730" x2="2442.1" y2="1981.3"/>
<line id="fly_19_" class="st0" x1="2366.7" y1="1981.3" x2="2366.7" y2="1730"/>
<line id="fly_18_" class="st0" x1="2391.8" y1="1730" x2="2391.8" y2="1981.3"/>
<line id="fly_17_" class="st0" x1="2417" y1="1981.3" x2="2417" y2="1730"/>
<line id="fly_16_" class="st0" x1="2341.5" y1="1730" x2="2341.5" y2="1981.3"/>
<line id="fly_15_" class="st0" x1="2467.2" y1="1981.3" x2="2467.2" y2="1730"/>
<line id="fly_14_" class="st0" x1="2291.3" y1="1730" x2="2291.3" y2="1981.3"/>
<line id="fly_13_" class="st0" x1="2266.1" y1="1981.3" x2="2266.1" y2="1730"/>
<line id="fly_12_" class="st0" x1="2241" y1="1730" x2="2241" y2="1981.3"/>
<line id="fly_11_" class="st0" x1="2215.8" y1="1981.3" x2="2215.8" y2="1730"/>
<rect x="1911" y="1436" class="st0" width="583" height="583"/>
<path id="fly_22_" class="st0" d="M2058.6,1452c69.3,0,125.4,56.2,125.4,125.4c0,69.3-56.2,125.4-125.4,125.4
	s-125.4-56.2-125.4-125.4C1933.2,1508.2,1989.3,1452,2058.6,1452"/>
<path id="fly_23_" class="st0" d="M2058.6,1452c69.3,0,125.4,56.2,125.4,125.4c0,69.3-56.2,125.4-125.4,125.4
	s-125.4-56.2-125.4-125.4C1933.2,1508.2,1989.3,1452,2058.6,1452"/>
<path id="fly_36_" class="st0" d="M2096.8,1539.2c21.1,21.1,21.1,55.4,0,76.5c-21.1,21.1-55.4,21.1-76.5,0
	c-21.1-21.1-21.1-55.4,0-76.5C2041.5,1518.1,2075.7,1518.1,2096.8,1539.2"/>
<path id="fly_31_" class="st0" d="M2058.6,1684.8c-59.3,0-107.4-48.1-107.4-107.4"/>
<path id="fly_30_" class="st0" d="M2058.6,1684.8c-59.3,0-107.4-48.1-107.4-107.4"/>
<path id="fly_33_" class="st0" d="M2058.6,1651.8c-41.1,0-74.4-33.3-74.4-74.4"/>
<path id="fly_32_" class="st0" d="M2058.6,1651.8c-41.1,0-74.4-33.3-74.4-74.4"/>
<path id="fly_25_" class="st0" d="M2058.6,1482c52.7,0,95.4,42.7,95.4,95.4"/>
<path id="fly_24_" class="st0" d="M2058.6,1482c52.7,0,95.4,42.7,95.4,95.4"/>
<path id="fly_27_" class="st0" d="M2166,1577.4c0,59.3-48.1,107.4-107.4,107.4"/>
<path id="fly_26_" class="st0" d="M2166,1577.4c0,59.3-48.1,107.4-107.4,107.4"/>
<path id="fly_29_" class="st0" d="M2133,1577.4c0,41.1-33.3,74.4-74.4,74.4"/>
<path id="fly_28_" class="st0" d="M2133,1577.4c0,41.1-33.3,74.4-74.4,74.4"/>
<path id="fly_35_" class="st0" d="M1963.2,1577.4c0-52.7,42.7-95.4,95.4-95.4"/>
<path id="fly_34_" class="st0" d="M1963.2,1577.4c0-52.7,42.7-95.4,95.4-95.4"/>
<path id="fly_37_" class="st0" d="M2460.7,1650.8c-55.3,55.3-144.8,55.3-200.1,0c-44.2-44.2-44.2-115.9,0-160.1
	c35.4-35.4,92.7-35.4,128.1,0c28.3,28.3,28.3,74.2,0,102.4c-22.6,22.6-59.3,22.6-82,0c-18.1-18.1-18.1-47.5,0-65.6
	c14.5-14.5,38-14.5,52.5,0c11.6,11.6,11.6,30.4,0,42c-9.3,9.3-24.3,9.3-33.6,0c-7.4-7.4-7.4-19.4,0-26.9"/>
</svg>
